<?xml version="1.0" encoding="UTF-8" standalone="no"?>
<svg
   xmlns:dc="http://purl.org/dc/elements/1.1/"
   xmlns:cc="http://creativecommons.org/ns#"
   xmlns:rdf="http://www.w3.org/1999/02/22-rdf-syntax-ns#"
   xmlns:svg="http://www.w3.org/2000/svg"
   xmlns="http://www.w3.org/2000/svg"
   id="svg8"
   version="1.1"
   viewBox="0 0 642.14377 168.53959"
   height="637"
   width="2427">
  <defs
     id="defs2" />
  <metadata
     id="metadata5">
    <rdf:RDF>
      <cc:Work
         rdf:about="">
        <dc:format>image/svg+xml</dc:format>
        <dc:type
           rdf:resource="http://purl.org/dc/dcmitype/StillImage" />
        <dc:title></dc:title>
      </cc:Work>
    </rdf:RDF>
  </metadata>
  <g
     transform="translate(0,-128.46039)"
     id="layer1">
    <path
       id="path850"
       d="m 33.80141,280.20713 -16.86637,-16.76943 -0.067,-42.15476 -0.067,-42.15477 -8.40052,-0.0699 L 0,178.98837 V 153.72445 128.46046 H 42.06875 84.1375 v 25.26399 25.26399 l -8.40052,0.0699 -8.40052,0.0699 v 33.60208 33.60208 h 25.4 25.4 v -33.60215 -33.60208 l -8.40052,-0.0699 -8.40052,-0.0699 v -25.26399 -25.26399 h 27.04909 27.04911 l -1.45067,1.23371 c -5.21734,4.43708 -10.19562,11.22741 -13.25586,18.08087 -7.81768,17.50785 -7.59362,35.81518 0.61437,50.19768 l 1.09072,1.91121 3.76372,-3.66737 c 2.07005,-2.01706 4.11744,-3.92889 4.54976,-4.24852 l 0.78603,-0.58114 -1.25891,-2.55749 c -1.45819,-2.96233 -2.49096,-5.86039 -2.1856,-6.13301 0.11648,-0.10398 4.20037,-1.71959 9.07532,-3.59024 9.09393,-3.48959 10.31875,-4.13079 10.31875,-5.40195 0,-0.31343 -0.36196,-0.93183 -0.80435,-1.37422 -0.62912,-0.62912 -0.96249,-0.77273 -1.53025,-0.65917 -0.39924,0.0798 -4.62702,1.65561 -9.39505,3.50169 -4.76803,1.84608 -8.73012,3.29554 -8.80465,3.22102 -0.47258,-0.47259 -1.11823,-9.90912 -0.79564,-11.6287 l 0.17906,-0.95445 1.91033,-0.1475 c 1.05069,-0.0811 5.2112,-0.23978 9.24558,-0.35256 6.83658,-0.19113 7.37055,-0.24104 7.85467,-0.73424 0.28569,-0.29104 0.59863,-0.85359 0.69542,-1.25011 0.14276,-0.58485 0.0189,-0.87803 -0.65619,-1.55311 l -0.83217,-0.83217 -4.94953,0.16733 c -2.72224,0.092 -6.74935,0.23907 -8.94913,0.32674 l -3.99961,0.15941 0.23666,-1.55175 c 0.28676,-1.88025 1.64592,-7.53837 2.12496,-8.84612 l 0.34593,-0.94437 6.57005,2.12423 c 6.20479,2.00614 6.60911,2.10232 7.27255,1.72994 0.97497,-0.54723 1.33427,-1.66426 0.8295,-2.57876 -0.34139,-0.61848 -1.20456,-0.98394 -6.72279,-2.84636 -3.48211,-1.17523 -6.37212,-2.2598 -6.42224,-2.41015 -0.0996,-0.29872 3.07863,-6.76833 3.74525,-7.62391 0.39821,-0.51108 0.50077,-0.43647 3.00071,2.18281 2.06527,2.16386 2.73654,2.71198 3.32128,2.71198 0.86223,0 2.03173,-1.05526 2.03173,-1.83326 0,-0.54992 -2.18067,-3.21486 -4.33641,-5.29943 -0.67091,-0.64876 -1.21984,-1.40294 -1.21984,-1.67596 0,-0.27689 1.26567,-1.77347 2.86229,-3.38449 l 2.86228,-2.88811 h 11.16063 11.16063 v 25.26771 25.26771 h -5.55625 c -3.88174,0 -5.55625,-0.0882 -5.55625,-0.29254 0,-0.1609 0.19871,-1.0241 0.44158,-1.91823 0.29442,-1.08396 0.44417,-2.68371 0.44939,-4.80069 0.009,-3.66176 -0.54013,-6.30936 -2.05098,-9.88848 -0.9271,-2.19624 -3.03078,-5.98497 -3.21876,-5.79699 -0.0538,0.0538 0.18495,0.98794 0.53046,2.07596 2.15,6.77041 1.32463,13.5548 -2.42833,19.96028 -2.46032,4.19922 -4.93849,7.07229 -15.80168,18.31972 -7.33012,7.58938 -10.73678,11.62801 -14.20138,16.83585 -11.84105,17.799 -14.00433,38.19332 -6.84211,64.5041 1.12155,4.12009 3.39737,11.15147 4.72653,14.60315 l 0.80106,2.08027 -0.97037,1.16088 -0.97038,1.16088 -42.07887,-0.0117 -42.07886,-0.0118 z m 201.94242,16.50241 c -3.13655,-0.61255 -6.00918,-2.85444 -7.3659,-5.74857 l -0.7039,-1.50155 -0.0773,-10.78178 -0.0773,-10.78177 h 2.11322 2.11323 l 0.0811,9.98802 c 0.092,11.33424 0.10236,11.39621 2.21187,13.25307 2.55302,2.24726 6.16768,2.13188 8.57323,-0.27367 1.78271,-1.7827 1.86301,-2.35848 1.86301,-13.35815 v -9.60927 h 2.12782 2.12782 l -0.0773,10.78804 -0.0773,10.78803 -0.85988,1.74596 c -2.10139,4.26682 -6.92195,6.47797 -11.97241,5.49164 z m 144.19791,-0.0601 c -3.9261,-0.91954 -6.85173,-3.79491 -7.31729,-7.19163 l -0.16296,-1.18899 h 2.1321 2.13211 l 0.30785,0.93276 c 0.76872,2.32927 2.84665,3.67754 5.68632,3.68959 2.39752,0.0102 4.0333,-0.85836 4.86939,-2.58548 0.67064,-1.38538 0.69336,-2.06126 0.11062,-3.28934 -0.65635,-1.38316 -2.31084,-2.28784 -5.71426,-3.12457 -4.92741,-1.21143 -7.03453,-2.372 -8.34086,-4.59405 -0.63389,-1.07826 -0.71427,-1.484 -0.71257,-3.59662 0.003,-1.95939 0.10734,-2.57921 0.59708,-3.4987 2.70698,-5.08208 10.32952,-6.33352 15.34036,-2.5185 0.98422,0.74933 2.33333,3.36927 2.5876,5.02501 l 0.17269,1.12448 h -2.27221 c -2.20922,0 -2.27222,-0.0172 -2.27222,-0.62233 0,-0.98315 -1.08894,-2.36685 -2.37331,-3.01569 -2.32402,-1.17406 -5.6075,-0.53846 -6.9514,1.34563 -0.89522,1.25505 -0.82867,3.07433 0.14981,4.09566 0.95543,0.99725 1.99586,1.44188 5.68304,2.42865 6.34222,1.69732 8.77466,3.97892 8.78093,8.23638 0.006,3.82327 -2.10357,6.73839 -5.81824,8.04127 -1.63144,0.57221 -4.84438,0.72107 -6.61458,0.30647 z m 103.98125,0.0728 c -2.26722,-0.38946 -5.62914,-2.17617 -7.36759,-3.91556 -1.67807,-1.67896 -3.25961,-4.45838 -3.86969,-6.80066 -0.52358,-2.01016 -0.51657,-5.56032 0.0151,-7.62088 2.31445,-8.9711 12.02497,-13.4504 20.44018,-9.42873 11.57795,5.53316 10.58807,22.93381 -1.54469,27.15317 -2.04984,0.71286 -5.49066,0.98759 -7.67324,0.61266 z m 5.16993,-4.36614 c 3.11309,-0.81064 5.44745,-2.74653 6.84284,-5.67478 0.75541,-1.58524 0.81952,-1.93758 0.81952,-4.50348 0,-2.60898 -0.0543,-2.89391 -0.86458,-4.5399 -2.06579,-4.19621 -6.63443,-6.6231 -10.85035,-5.76379 -2.04491,0.4168 -4.32893,1.66832 -5.63954,3.09018 -2.18162,2.36679 -3.2739,6.11899 -2.65438,9.11843 0.85498,4.1394 3.65009,7.23935 7.44755,8.25983 1.8964,0.5096 2.98233,0.5126 4.89894,0.0135 z m 58.87122,4.37165 c -3.15293,-0.66273 -5.83935,-2.79943 -7.24188,-5.75999 l -0.8399,-1.7729 -0.0824,-10.64948 -0.0825,-10.64948 h 2.26528 2.26526 v 9.82504 c 0,6.69106 0.0979,10.15194 0.30707,10.84992 0.44696,1.49184 1.83716,2.97042 3.44202,3.66081 3.29742,1.41852 7.39611,-0.37932 8.38433,-3.6777 0.20275,-0.67677 0.30199,-4.23655 0.30199,-10.83303 v -9.82504 h 2.26783 2.26779 l -0.0971,10.51719 c -0.10774,11.67215 -0.0911,11.55116 -1.95898,14.27951 -1.05539,1.54161 -2.99876,2.95714 -4.99311,3.63697 -1.59848,0.54489 -4.59351,0.73706 -6.20572,0.39818 z M 256.91049,282.18337 v -14.2875 h 2.10633 2.10632 l 6.02961,10.0665 6.02962,10.0665 0.0693,-10.0665 0.0693,-10.0665 h 2.11351 2.11352 v 14.29863 14.29863 l -2.03853,-0.0773 -2.03854,-0.0773 -6.0974,-10.16756 -6.0974,-10.16756 -0.0693,10.2337 -0.0693,10.23371 h -2.11356 -2.11356 z m 28.04584,0 v -14.2875 h 2.24895 2.24896 v 14.2875 14.2875 h -2.24896 -2.24895 z m 18.7008,14.08907 c -0.0637,-0.10914 -1.99147,-6.38969 -4.2839,-13.95677 -2.29243,-7.56709 -4.22645,-13.91201 -4.29784,-14.09984 -0.10125,-0.26644 0.38513,-0.3246 2.21285,-0.26458 l 2.34264,0.0769 2.95622,10.27144 c 1.62592,5.64929 3.01985,10.33509 3.09764,10.41288 0.16504,0.16503 0.41404,-0.64615 3.70975,-12.08537 l 2.47739,-8.59895 2.31738,-0.0769 c 1.80542,-0.0599 2.2896,-0.002 2.19173,0.26458 -0.0691,0.18783 -2.01845,6.6218 -4.33191,14.29772 l -4.2063,13.95623 -2.03491,5.2e-4 c -1.11918,2.7e-4 -2.08703,-0.0887 -2.15074,-0.19788 z m 18.07628,-14.08907 v -14.2875 h 8.59896 8.59895 v 1.98438 1.98437 h -6.48229 -6.48229 v 4.23334 4.23333 h 5.68854 5.68854 v 1.97911 1.97912 l -5.62239,0.0714 -5.6224,0.0714 -0.073,4.0349 -0.0731,4.03489 h 6.75378 6.75375 v 1.98438 1.98437 h -8.86354 -8.86354 z m 24.60625,0 v -14.2875 h 6.69975 c 7.61706,0 8.3507,0.13354 10.33635,1.88137 1.85594,1.63367 2.63937,3.50906 2.7642,6.61709 0.11782,2.93327 -0.27942,4.53046 -1.56985,6.31183 -0.99904,1.37913 -2.8761,2.57883 -4.39005,2.80587 -0.8184,0.12272 -1.13157,0.28151 -1.03769,0.52614 0.074,0.1927 1.68844,2.55246 3.58775,5.24391 1.89931,2.69145 3.45329,4.95997 3.45329,5.04117 0,0.0812 -1.16631,0.14762 -2.59181,0.14762 h -2.59183 l -3.55973,-5.28425 -3.55976,-5.28426 -1.52135,-0.007 -1.52136,-0.007 v 5.29166 5.29167 h -2.24895 -2.24896 v -14.2875 z m 13.40924,-0.95091 c 1.28611,-0.95521 1.92789,-2.40021 1.92789,-4.34075 0,-2.03017 -0.68284,-3.47906 -2.08497,-4.42395 -0.8318,-0.56055 -1.17248,-0.60314 -4.82463,-0.60314 h -3.92962 v 5.04571 5.04571 l 4.08268,-0.0848 c 3.65284,-0.0759 4.16121,-0.1431 4.82865,-0.63881 z m 38.71367,0.95091 v -14.2875 h 2.11667 2.11667 v 14.2875 14.2875 h -2.11667 -2.11667 z m 17.92817,2.05052 -0.0688,-12.23697 -4.16719,-0.0729 -4.16719,-0.0729 v -1.97766 -1.97766 h 10.58334 10.58333 v 1.97766 1.97766 l -4.16719,0.0729 -4.16718,0.0729 -0.0688,12.23697 -0.0688,12.23698 h -2.11137 -2.11138 z m 26.78642,5.79161 c 0,-6.42428 -0.003,-6.44853 -0.65593,-7.41194 -0.36079,-0.53162 -2.72164,-3.91175 -5.24637,-7.5114 -2.52474,-3.59966 -4.67736,-6.69366 -4.78364,-6.87556 -0.14912,-0.25527 0.39894,-0.33045 2.4021,-0.32949 l 2.59529,10e-4 3.83646,5.55156 c 2.11006,3.05335 3.91642,5.55311 4.01413,5.55502 0.0977,0.002 1.92278,-2.49686 4.05566,-5.55279 l 3.878,-5.55625 h 2.63777 2.63779 l -0.78103,1.12448 c -0.42955,0.61846 -2.9356,4.15908 -5.56895,7.86804 l -4.78795,6.74346 v 6.41947 6.41945 h -2.11667 -2.11666 z m 63.76458,-7.84213 v -14.2875 h 8.59896 8.59896 v 1.98438 1.98437 h -6.35 -6.35 v 4.23334 4.23333 h 5.02708 5.02708 v 1.98438 1.98437 h -5.02708 -5.02708 v 6.08542 6.08541 h -2.24896 -2.24896 z m 68.52708,1.98438 v -12.30313 h -4.23333 -4.23334 v -1.98437 -1.98438 h 10.71563 10.71562 v 1.98438 1.98437 h -4.23333 -4.23333 v 12.30313 12.30312 h -2.24896 -2.24896 z m 13.01718,11.98317 c 0.0646,-0.18783 2.48166,-6.62205 5.3712,-14.29828 l 5.25373,-13.95677 h 2.44745 2.44742 l 0.52176,1.38907 c 0.28697,0.76398 2.67676,7.09148 5.31066,14.06109 2.63393,6.96962 4.78893,12.77392 4.78893,12.89844 0,0.12452 -1.00308,0.2264 -2.22908,0.2264 H 610.169 l -1.38199,-3.57187 -1.382,-3.57188 -5.84777,0.004 -5.84779,0.004 -1.32567,3.50161 -1.32567,3.5016 -2.34479,0.0769 c -1.82462,0.0599 -2.31873,10e-4 -2.22732,-0.26458 z m 15.92178,-14.95973 c -0.81076,-2.29196 -1.71617,-4.88157 -2.01205,-5.75469 -0.29586,-0.87313 -0.61764,-1.67687 -0.71509,-1.7861 -0.15242,-0.17088 -4.27114,10.9656 -4.25667,11.50954 0.003,0.10914 1.90712,0.19843 4.23159,0.19843 h 4.22632 z m 15.77562,0.99218 v -14.2875 h 2.1118 2.11177 l 0.071,6.15157 0.071,6.15156 6.54844,0.0708 6.54843,0.0708 v -6.22233 -6.22233 h 2.24896 2.24896 v 14.2875 14.2875 h -2.24896 -2.24896 v -6.08541 -6.08542 h -6.61458 -6.61458 v 6.08542 6.08541 h -2.11667 -2.11667 z m -470.1299,-2.84173 c -3.72518,-7.37954 -6.89053,-16.78844 -8.25665,-24.54264 -0.78721,-4.46825 -0.97979,-12.36449 -0.40727,-16.69915 1.62506,-12.30372 6.64241,-22.17391 19.21752,-37.80502 1.40485,-1.74625 3.72155,-4.72281 5.14824,-6.61458 1.42668,-1.89177 2.63679,-3.48919 2.68914,-3.54983 0.0523,-0.0606 0.0952,5.03984 0.0952,11.33438 v 11.44462 l -1.78594,-1.646 c -0.98226,-0.9053 -2.15882,-1.80454 -2.61458,-1.99831 -2.11275,-0.89825 -4.59129,1.32138 -4.13585,3.70382 0.12346,0.64585 2.94758,3.57985 7.14731,7.42537 l 1.38906,1.2719 v 4.35048 4.35048 l -1.65365,-0.15021 c -0.9095,-0.0826 -4.6401,-0.28402 -8.29022,-0.44756 -5.88084,-0.26349 -6.72752,-0.25032 -7.43519,0.11563 -2.26406,1.17079 -2.36194,4.21747 -0.1814,5.64622 0.56382,0.36943 1.91611,0.51121 7.4708,0.78328 3.7303,0.18271 7.52651,0.33858 8.43601,0.34636 l 1.65365,0.0142 v 4.73509 4.73509 l -8.79739,3.49663 c -9.92517,3.94487 -10.51805,4.30625 -10.5162,6.41003 0.002,1.92881 1.52312,3.64191 3.23441,3.64191 0.33872,0 4.00581,-1.36887 8.14908,-3.04194 4.14328,-1.67307 7.62252,-3.04229 7.73166,-3.04271 0.10914,-5.3e-4 0.19844,2.2329 0.19844,4.96293 v 4.96369 l -4.69635,4.62775 c -2.583,2.54527 -6.56094,6.46102 -8.83989,8.70167 l -4.14352,4.07392 z m 78.01741,-78.78222 v -39.55521 h 7.14375 7.14375 v 16.53646 16.53646 h 16.00729 16.00729 v -16.53646 -16.53646 h 7.27604 7.27605 v 39.55521 39.5552 h -7.27404 -7.274 l -0.0682,-16.33802 -0.0682,-16.33802 h -15.875 -15.875 l -0.0682,16.33802 -0.0682,16.33802 h -7.14173 -7.14173 z m 82.81458,0 v -39.55521 h 24.47396 24.47396 v 6.48229 6.48229 h -17.19792 -17.19792 v 10.31875 10.31875 h 15.08125 15.08125 v 6.48229 6.4823 h -15.0845 -15.0845 l 0.0694,9.72343 0.0694,9.72344 17.66093,0.068 17.66094,0.068 v 6.48042 6.48041 h -25.00312 -25.00313 z m 60.58871,38.16614 c 0.28649,-0.76398 6.94264,-18.53406 14.79148,-39.48906 l 14.27062,-38.1 7.92919,-0.07 c 7.36798,-0.065 7.94224,-0.0369 8.11358,0.39687 0.10142,0.25678 6.6076,17.61186 14.45818,38.56686 7.85059,20.955 14.44755,38.54648 14.65993,39.09219 l 0.38611,0.99218 -7.73692,-5e-5 -7.73692,-6e-5 -3.61633,-9.59109 -3.61632,-9.59109 -14.78836,-0.0683 -14.78833,-0.0683 -2.81011,7.47666 c -1.54556,4.11216 -3.18585,8.45893 -3.64506,9.65947 l -0.83494,2.18281 h -7.77833 -7.77833 z m 44.33647,-38.89375 c -4.59161,-14.05908 -7.14732,-21.62968 -7.30184,-21.62968 -0.0815,0 -2.27211,6.5782 -4.86812,14.61822 -2.59601,8.04003 -4.77629,14.76706 -4.84508,14.94896 -0.0987,0.26093 1.96863,0.33073 9.79514,0.33073 h 9.92024 z m 43.24149,0.72761 v -39.55521 h 7.27501 7.27501 l 0.0672,33.00677 0.0672,33.00677 15.27969,0.0683 15.27969,0.0683 v 6.48014 6.48014 h -22.62188 -22.62187 z m 68.72655,6.68073 -0.0672,-32.87448 -11.04635,-0.0691 -11.04636,-0.0691 v -6.61168 -6.61168 h 29.63333 29.63334 v 6.61171 6.61171 l -11.17865,0.069 -11.17864,0.069 -0.0672,32.87448 -0.0672,32.87447 h -7.27398 -7.27397 z m 53.24636,-6.68073 v -39.55521 h 7.27604 7.27604 v 16.53646 16.53646 h 15.875 15.875 v -16.53646 -16.53646 h 7.40834 7.40833 v 39.55521 39.5552 h -7.40833 -7.40834 v -16.40416 -16.40417 h -15.875 -15.875 v 16.40417 16.40416 h -7.27604 -7.27604 z"
       style="fill:#ac162c;stroke-width:0.26458332;fill-opacity:1" />
  </g>
</svg>
